<?xml version="1.0" encoding="utf-8"?>
<!-- Generator: Adobe Illustrator 28.0.0, SVG Export Plug-In . SVG Version: 6.00 Build 0)  -->
<svg version="1.1" id="Layer_1" xmlns="http://www.w3.org/2000/svg" xmlns:xlink="http://www.w3.org/1999/xlink" x="0px" y="0px"
	 viewBox="0 0 36 72" style="enable-background:new 0 0 36 72;" xml:space="preserve">
<style type="text/css">
	.st0{fill:#FFFFFF;}
</style>
<g>
	<path class="st0" d="M33.8,25.7h-3.6c1.5-2.3,0.8-5.3-1.5-6.8c-1.1-0.7-2.5-1-3.8-0.7c-1.3-2.4-4.3-3.2-6.7-1.8h0
		c-2.4-2.2-6.2-1.9-8.3,0.5c-0.1,0.1-0.2,0.2-0.3,0.4c-2.6-2-6.3-1.6-8.4,1s-1.6,6.3,1,8.4c0.4,0.3,0.8,0.5,1.2,0.7v4.9
		c-0.1,2.2,1.7,4.1,4,4.2c2.3,0.1,4.1-1.7,4.2-4c0-0.1,0-0.2,0-0.3v-6.2c2.3,1.2,5.1,0.7,7-1.1c1,0.5,2.2,0.6,3.3,0.4
		c0.9,1.5,2.5,2.5,4.3,2.5c0.4,0,0.7,0,1.1-0.1v17.8c0,1.5-1.2,2.8-2.7,2.8H10.5c-1.5,0-2.8-1.2-2.8-2.8v-5.4c0-0.5-0.4-0.9-0.9-0.9
		S6,39.7,6,40.2v5.4c0,2.5,2,4.5,4.5,4.5h14c2.5,0,4.5-2,4.5-4.5v-4.5h4.8c1.2,0,2.2-1,2.2-2.2v-11C36,26.7,35,25.7,33.8,25.7z
		 M34.2,38.9c0,0.3-0.2,0.4-0.4,0.4H29V27.5h4.8c0.3,0,0.4,0.2,0.4,0.4V38.9z M13.1,44.7c-0.5,0-0.9-0.4-0.9-0.9v-6.6
		c0-0.5,0.4-0.9,0.9-0.9s0.9,0.4,0.9,0.9v6.6C14,44.3,13.6,44.7,13.1,44.7L13.1,44.7L13.1,44.7z M17.5,44.7c-0.5,0-0.9-0.4-0.9-0.9
		v-14c0-0.5,0.4-0.9,0.9-0.9c0.5,0,0.9,0.4,0.9,0.9v14C18.4,44.3,18,44.7,17.5,44.7L17.5,44.7L17.5,44.7z M21.9,44.7
		c-0.5,0-0.9-0.4-0.9-0.9v-14c0-0.5,0.4-0.9,0.9-0.9s0.9,0.4,0.9,0.9v14C22.8,44.3,22.4,44.7,21.9,44.7L21.9,44.7L21.9,44.7z"/>
</g>
</svg>
