<?xml version="1.0" encoding="utf-8"?>
<!-- Generator: Adobe Illustrator 28.0.0, SVG Export Plug-In . SVG Version: 6.00 Build 0)  -->
<svg version="1.1" id="Layer_1" xmlns="http://www.w3.org/2000/svg" xmlns:xlink="http://www.w3.org/1999/xlink" x="0px" y="0px"
	 viewBox="0 0 36 72" style="enable-background:new 0 0 36 72;" xml:space="preserve">
<style type="text/css">
	.st0{fill-rule:evenodd;clip-rule:evenodd;fill:#FFFFFF;}
</style>
<g>
	<g transform="translate(-489.000000, -687.000000)">
		<g transform="translate(489.000000, 687.000000)">
			<path class="st0" d="M26.6,54.9L26.6,54.9L26.6,54.9z M18,53.1c-5.1,0-8.3,1.1-8.6,1.7c0.3,0.5,3.4,1.7,8.6,1.7
				c5.1,0,8.2-1.1,8.6-1.7C26.2,54.3,23.1,53.1,18,53.1L18,53.1z M18,58.3c-3.9,0-10.3-0.7-10.3-3.4s6.4-3.4,10.3-3.4
				s10.3,0.7,10.3,3.4S21.9,58.3,18,58.3L18,58.3z"/>
			<path class="st0" d="M34.3,11.1L34.3,11.1L34.3,11.1z M18,8.6c-10.1,0-15.9,1.7-16.3,2.6C2.1,12,7.9,13.7,18,13.7
				c10,0,15.8-1.6,16.3-2.6C33.8,10.2,28,8.6,18,8.6L18,8.6z M18,15.4c-0.8,0-18-0.1-18-4.3s17.2-4.3,18-4.3s18,0.1,18,4.3
				S18.8,15.4,18,15.4L18,15.4z"/>
			<path class="st0" d="M18,55.7c-0.5,0-0.9-0.3-0.9-0.9V32.6c0-0.5,0.3-0.9,0.9-0.9s0.9,0.3,0.9,0.9v22.3
				C18.9,55.4,18.5,55.7,18,55.7L18,55.7z"/>
			<path class="st0" d="M35.1,12.6L35.1,12.6l-4.4,6l-9.3,13.1c-0.6,0.9-1.5,1.5-2.6,1.6c-0.3,0.1-0.6,0.1-0.9,0.1s-0.6,0-0.9-0.1
				c-1-0.2-2-0.8-2.6-1.6L6.9,21.1l-6.1-8.4v-0.1c-0.3-0.4-0.2-0.9,0.2-1.2c0.3-0.2,0.5-0.2,0.7-0.1c0.2,0,0.3,0.2,0.5,0.3l0,0l0,0
				l1.7,2.4l4,5.5L9,21l6.9,9.7c0.4,0.7,1.2,1,2.1,1s1.5-0.4,2.1-1l7.3-10.1l2.1-3l2.6-3.5l1.7-2.4c0,0,0-0.1,0.1-0.1
				c0.1-0.1,0.2-0.2,0.3-0.2c0.3-0.1,0.6-0.1,0.9,0.1C35.3,11.7,35.4,12.2,35.1,12.6z"/>
			<path class="st0" d="M18,32.3c-1,0-2-0.5-2.5-1.3L8,20.7l0.9-0.3c1.1-0.3,2.2-0.4,3.3-0.4c1.5,0,2.8,0.3,4.2,0.9
				c1.1,0.5,2.3,0.8,3.8,0.8c2.1,0,4.5-0.6,7.1-1.7l2.1-0.9l-8.6,12C20,31.9,19,32.3,18,32.3z"/>
			<path class="st0" d="M27.3,20.5l-7.3,10.1c-0.5,0.7-1.3,1.1-2.1,1.1s-1.5-0.4-2.1-1L9,21c2.6-0.7,4.9-0.6,6.9,0.4
				c1.3,0.6,2.7,0.9,4,0.9C22.5,22.3,25.1,21.4,27.3,20.5z"/>
			<path class="st0" d="M30.8,18.6c-0.1,0.2-0.2,0.3-0.3,0.3c-0.9,0.5-2,1-3.2,1.5c-2.2,0.9-4.8,1.7-7.3,1.7c-1.4,0-2.7-0.3-4-0.9
				c-2.1-1-4.4-1.1-6.9-0.4c-0.3,0.1-0.8,0.2-1.1,0.3c-0.3,0.1-0.8,0-0.9-0.3c-0.1,0-0.1-0.1-0.2-0.2c-0.1-0.4,0.1-0.9,0.5-1.1
				c0.2-0.1,0.4-0.2,0.6-0.2c3.3-1,6.1-0.9,8.7,0.3c4,1.9,9.7-0.6,12.8-2.3c0.1,0,0.1-0.1,0.2-0.1c0.4-0.3,0.9-0.1,1.2,0.3
				C30.9,18.1,30.9,18.3,30.8,18.6z"/>
		</g>
	</g>
</g>
</svg>
