<?xml version="1.0" encoding="utf-8"?>
<!-- Generator: Adobe Illustrator 28.0.0, SVG Export Plug-In . SVG Version: 6.00 Build 0)  -->
<svg version="1.1" id="Layer_1" xmlns="http://www.w3.org/2000/svg" xmlns:xlink="http://www.w3.org/1999/xlink" x="0px" y="0px"
	 viewBox="0 0 36 72" style="enable-background:new 0 0 36 72;" xml:space="preserve">
<style type="text/css">
	.st0{fill:#FFFFFF;}
</style>
<g>
	<path class="st0" d="M28.4,8.3C27.9,7.4,27,6.9,26,6.9H10c-1,0-1.9,0.6-2.3,1.5c-1.1,2.7-2.9,7.5-2.9,10.1c0,5.3,3.2,10.1,8,12.2
		c1.1,0.5,1.9,1.2,2.4,2.3l1.3,2.7c0.2,0.2,0.4,0.5,0.7,0.7V50h-0.8c-0.1,0-0.2,0-0.2,0c-2.7,0.8-5.1,2-7.4,3.6
		c-0.6,0.4-0.9,1.2-0.7,1.9c0.2,0.7,0.8,1.2,1.6,1.2h16.7c0.7,0,1.4-0.5,1.6-1.2c0.2-0.7,0-1.5-0.7-1.8C25,52,22.4,50.8,19.8,50
		c-0.1,0-0.2,0-0.2,0h-0.8V36.3c0.2-0.2,0.5-0.4,0.7-0.7l1.3-2.7c0.5-1,1.3-1.8,2.3-2.2c0.6-0.2,1.1-0.5,1.6-0.8l0.4-0.2l0.5-0.3
		l0.6-0.4l0.3-0.2c0.2-0.2,0.6-0.5,0.8-0.7l0.2-0.2c0.2-0.2,0.4-0.4,0.7-0.7l0.2-0.2c0.2-0.2,0.4-0.5,0.6-0.7c0-0.1,0.1-0.1,0.1-0.2
		c0.2-0.3,0.4-0.7,0.6-1l0.2-0.2c0.2-0.2,0.2-0.5,0.4-0.8c0.1-0.1,0.1-0.2,0.2-0.3c0.1-0.3,0.2-0.6,0.3-0.8c0-0.1,0.1-0.2,0.1-0.2
		c0.1-0.3,0.2-0.7,0.2-1.1c0-0.1,0-0.2,0.1-0.3c0.1-0.3,0.1-0.6,0.2-0.8c0-0.1,0-0.2,0-0.3c0-0.4,0.1-0.8,0.1-1.2
		C31.3,15.9,29.4,11.1,28.4,8.3z M19.5,51.6c1.3,0.4,2.7,0.9,3.9,1.6c1,0.5,2,1.1,2.9,1.7H9.6c0.9-0.7,1.9-1.2,2.9-1.7
		c1.2-0.7,2.6-1.2,3.9-1.6H19.5z M29.5,19.5c0,0.1,0,0.2,0,0.3c0,0.2-0.1,0.5-0.1,0.7c0,0.1,0,0.2-0.1,0.3c-0.1,0.3-0.2,0.7-0.2,1
		c0,0.1-0.1,0.2-0.1,0.2c-0.1,0.2-0.2,0.5-0.2,0.7c0,0.1-0.1,0.2-0.2,0.3c-0.1,0.2-0.2,0.4-0.3,0.7l-0.2,0.2
		c-0.2,0.3-0.3,0.6-0.5,0.8l-0.2,0.2c-0.2,0.2-0.3,0.4-0.5,0.7l-0.1,0.1l-0.5,0.6l-0.2,0.2c-0.2,0.2-0.5,0.4-0.7,0.7
		c-0.1,0.1-0.2,0.2-0.3,0.2l-0.4,0.3l-0.5,0.3L24,28.4c-0.4,0.2-0.9,0.5-1.4,0.7c0,0-0.1,0-0.1,0.1c-1.4,0.6-2.9,0.9-4.5,0.9
		c-0.5,0-0.8,0.3-0.8,0.8s0.3,0.8,0.8,0.8c0.6,0,1.1-0.1,1.7-0.1c-0.2,0.2-0.2,0.4-0.4,0.6L18,34.9l-1.3-2.7
		c-0.7-1.4-1.8-2.5-3.2-3.1c-4.3-1.9-7-6.1-7-10.7c0-1.7,1.1-5.1,2.8-9.5C9.4,8.7,9.6,8.5,10,8.5H26c0.3,0,0.7,0.2,0.7,0.5
		c1.7,4.3,2.8,7.8,2.8,9.5C29.6,18.8,29.6,19.2,29.5,19.5z M12.2,13.5c0.5,0,0.8-0.3,0.8-0.8c0-0.5-0.3-0.8-0.8-0.8
		c-0.5,0-0.8,0.3-0.8,0.8C11.4,13.2,11.7,13.5,12.2,13.5z M20.9,15c-3.2,0.1-6.5,0.5-9.6,1.3c-0.3,2-0.1,4.1,0.8,5.9
		c0.2,0.4,0.1,0.9-0.3,1.1c-0.2,0.2-0.2,0.2-0.4,0.2c-0.3,0-0.6-0.2-0.7-0.4c-0.9-1.9-1.2-4-1.1-6.1c-0.9,0.4-1.5,0.9-1.5,1.5
		c0,5.5,4.5,9.9,9.9,9.9s9.9-4.5,9.9-9.9c0-0.9-0.4-2.2-2.3-2.8C24.1,15.1,22.5,14.9,20.9,15z"/>
</g>
</svg>
